<mxfile host="app.diagrams.net" modified="2023-04-16T21:08:07.915Z" agent="Mozilla/5.0 (Windows NT 10.0; Win64; x64) AppleWebKit/537.36 (KHTML, like Gecko) Chrome/111.0.0.0 Safari/537.36 Edg/111.0.1661.62" etag="8jJLEcUKdX3whmhgUnOP" version="21.1.8" type="github">
  <diagram name="Page-1" id="58cdce13-f638-feb5-8d6f-7d28b1aa9fa0">
    <mxGraphModel dx="737" dy="430" grid="1" gridSize="10" guides="1" tooltips="1" connect="1" arrows="1" fold="1" page="1" pageScale="1" pageWidth="1100" pageHeight="850" background="none" math="0" shadow="0">
      <root>
        <mxCell id="0" />
        <mxCell id="1" parent="0" />
        <mxCell id="382b91b5511bd0f7-1" value="" style="ellipse;html=1;shape=startState;fillColor=#000000;strokeColor=#ff0000;rounded=1;shadow=0;comic=0;labelBackgroundColor=none;fontFamily=Verdana;fontSize=12;fontColor=#000000;align=center;direction=south;" parent="1" vertex="1">
          <mxGeometry x="90" y="50" width="30" height="30" as="geometry" />
        </mxCell>
        <mxCell id="2a3bc250acf0617d-7" value="Authorized" style="swimlane;whiteSpace=wrap;html=1;rounded=1;shadow=0;comic=0;labelBackgroundColor=none;strokeWidth=1;fontFamily=Verdana;fontSize=12;align=center;startSize=23;" parent="1" vertex="1">
          <mxGeometry x="40" y="190" width="680" height="650" as="geometry" />
        </mxCell>
        <mxCell id="mMlRRfYjoOWAPiQgJu5k-44" style="edgeStyle=orthogonalEdgeStyle;rounded=0;orthogonalLoop=1;jettySize=auto;html=1;exitX=1;exitY=0.75;exitDx=0;exitDy=0;entryX=0;entryY=0.75;entryDx=0;entryDy=0;" edge="1" parent="2a3bc250acf0617d-7" source="382b91b5511bd0f7-8" target="3cde6dad864a17aa-1">
          <mxGeometry relative="1" as="geometry" />
        </mxCell>
        <mxCell id="mMlRRfYjoOWAPiQgJu5k-51" style="edgeStyle=orthogonalEdgeStyle;rounded=0;orthogonalLoop=1;jettySize=auto;html=1;exitX=0.25;exitY=1;exitDx=0;exitDy=0;entryX=0.25;entryY=0;entryDx=0;entryDy=0;" edge="1" parent="2a3bc250acf0617d-7" source="382b91b5511bd0f7-8" target="mMlRRfYjoOWAPiQgJu5k-30">
          <mxGeometry relative="1" as="geometry" />
        </mxCell>
        <mxCell id="mMlRRfYjoOWAPiQgJu5k-130" style="edgeStyle=orthogonalEdgeStyle;rounded=0;orthogonalLoop=1;jettySize=auto;html=1;exitX=0;exitY=0.25;exitDx=0;exitDy=0;entryX=0;entryY=0.75;entryDx=0;entryDy=0;" edge="1" parent="2a3bc250acf0617d-7" source="382b91b5511bd0f7-8" target="mMlRRfYjoOWAPiQgJu5k-128">
          <mxGeometry relative="1" as="geometry">
            <Array as="points">
              <mxPoint x="20" y="65" />
              <mxPoint x="20" y="495" />
            </Array>
          </mxGeometry>
        </mxCell>
        <mxCell id="382b91b5511bd0f7-8" value="AdminDashboard" style="rounded=1;whiteSpace=wrap;html=1;arcSize=24;fillColor=#ffffc0;strokeColor=#ff0000;shadow=0;comic=0;labelBackgroundColor=none;fontFamily=Verdana;fontSize=12;fontColor=#000000;align=center;" parent="2a3bc250acf0617d-7" vertex="1">
          <mxGeometry x="80" y="50" width="120" height="60" as="geometry" />
        </mxCell>
        <mxCell id="mMlRRfYjoOWAPiQgJu5k-40" style="edgeStyle=orthogonalEdgeStyle;rounded=0;orthogonalLoop=1;jettySize=auto;html=1;exitX=0.5;exitY=1;exitDx=0;exitDy=0;entryX=0;entryY=0.5;entryDx=0;entryDy=0;" edge="1" parent="2a3bc250acf0617d-7" source="3cde6dad864a17aa-1" target="mMlRRfYjoOWAPiQgJu5k-39">
          <mxGeometry relative="1" as="geometry" />
        </mxCell>
        <mxCell id="mMlRRfYjoOWAPiQgJu5k-45" style="edgeStyle=orthogonalEdgeStyle;rounded=0;orthogonalLoop=1;jettySize=auto;html=1;exitX=0;exitY=0.25;exitDx=0;exitDy=0;entryX=1;entryY=0.25;entryDx=0;entryDy=0;" edge="1" parent="2a3bc250acf0617d-7" source="3cde6dad864a17aa-1" target="382b91b5511bd0f7-8">
          <mxGeometry relative="1" as="geometry" />
        </mxCell>
        <mxCell id="mMlRRfYjoOWAPiQgJu5k-55" style="edgeStyle=orthogonalEdgeStyle;rounded=0;orthogonalLoop=1;jettySize=auto;html=1;exitX=1;exitY=0.75;exitDx=0;exitDy=0;entryX=0;entryY=0.75;entryDx=0;entryDy=0;" edge="1" parent="2a3bc250acf0617d-7" source="3cde6dad864a17aa-1" target="mMlRRfYjoOWAPiQgJu5k-33">
          <mxGeometry relative="1" as="geometry" />
        </mxCell>
        <mxCell id="3cde6dad864a17aa-1" value="AccountsPage" style="rounded=1;whiteSpace=wrap;html=1;arcSize=24;fillColor=#ffffc0;strokeColor=#ff0000;shadow=0;comic=0;labelBackgroundColor=none;fontFamily=Verdana;fontSize=12;fontColor=#000000;align=center;" parent="2a3bc250acf0617d-7" vertex="1">
          <mxGeometry x="280" y="50" width="120" height="60" as="geometry" />
        </mxCell>
        <mxCell id="mMlRRfYjoOWAPiQgJu5k-52" style="edgeStyle=orthogonalEdgeStyle;rounded=0;orthogonalLoop=1;jettySize=auto;html=1;exitX=0.75;exitY=0;exitDx=0;exitDy=0;entryX=0.75;entryY=1;entryDx=0;entryDy=0;" edge="1" parent="2a3bc250acf0617d-7" source="mMlRRfYjoOWAPiQgJu5k-30" target="382b91b5511bd0f7-8">
          <mxGeometry relative="1" as="geometry" />
        </mxCell>
        <mxCell id="mMlRRfYjoOWAPiQgJu5k-61" style="edgeStyle=orthogonalEdgeStyle;rounded=0;orthogonalLoop=1;jettySize=auto;html=1;exitX=0.5;exitY=1;exitDx=0;exitDy=0;entryX=0.5;entryY=0;entryDx=0;entryDy=0;" edge="1" parent="2a3bc250acf0617d-7" source="mMlRRfYjoOWAPiQgJu5k-30" target="mMlRRfYjoOWAPiQgJu5k-60">
          <mxGeometry relative="1" as="geometry" />
        </mxCell>
        <mxCell id="mMlRRfYjoOWAPiQgJu5k-30" value="Notifications" style="rounded=1;whiteSpace=wrap;html=1;arcSize=24;fillColor=#ffffc0;strokeColor=#ff0000;shadow=0;comic=0;labelBackgroundColor=none;fontFamily=Verdana;fontSize=12;fontColor=#000000;align=center;" vertex="1" parent="2a3bc250acf0617d-7">
          <mxGeometry x="80" y="190" width="120" height="60" as="geometry" />
        </mxCell>
        <mxCell id="mMlRRfYjoOWAPiQgJu5k-68" style="edgeStyle=orthogonalEdgeStyle;rounded=0;orthogonalLoop=1;jettySize=auto;html=1;exitX=0.5;exitY=1;exitDx=0;exitDy=0;" edge="1" parent="2a3bc250acf0617d-7" source="mMlRRfYjoOWAPiQgJu5k-31">
          <mxGeometry relative="1" as="geometry">
            <mxPoint x="320" y="310" as="targetPoint" />
          </mxGeometry>
        </mxCell>
        <mxCell id="mMlRRfYjoOWAPiQgJu5k-31" value="Courses / Labs" style="rounded=1;whiteSpace=wrap;html=1;arcSize=24;fillColor=#ffffc0;strokeColor=#ff0000;shadow=0;comic=0;labelBackgroundColor=none;fontFamily=Verdana;fontSize=12;fontColor=#000000;align=center;" vertex="1" parent="2a3bc250acf0617d-7">
          <mxGeometry x="260" y="210" width="120" height="60" as="geometry" />
        </mxCell>
        <mxCell id="mMlRRfYjoOWAPiQgJu5k-43" style="edgeStyle=orthogonalEdgeStyle;rounded=0;orthogonalLoop=1;jettySize=auto;html=1;exitX=0;exitY=0.25;exitDx=0;exitDy=0;entryX=1;entryY=0.25;entryDx=0;entryDy=0;" edge="1" parent="2a3bc250acf0617d-7" source="mMlRRfYjoOWAPiQgJu5k-33" target="3cde6dad864a17aa-1">
          <mxGeometry relative="1" as="geometry" />
        </mxCell>
        <mxCell id="mMlRRfYjoOWAPiQgJu5k-33" value="CreateAccount&lt;hr&gt;enter email" style="rounded=1;whiteSpace=wrap;html=1;arcSize=24;fillColor=#ffffc0;strokeColor=#ff0000;shadow=0;comic=0;labelBackgroundColor=none;fontFamily=Verdana;fontSize=12;fontColor=#000000;align=center;" vertex="1" parent="2a3bc250acf0617d-7">
          <mxGeometry x="480" y="50" width="120" height="60" as="geometry" />
        </mxCell>
        <mxCell id="mMlRRfYjoOWAPiQgJu5k-34" value="search name" style="text;strokeColor=none;align=center;fillColor=none;html=1;verticalAlign=middle;whiteSpace=wrap;rounded=0;" vertex="1" parent="2a3bc250acf0617d-7">
          <mxGeometry x="330" y="140" width="80" height="10" as="geometry" />
        </mxCell>
        <mxCell id="mMlRRfYjoOWAPiQgJu5k-47" style="edgeStyle=orthogonalEdgeStyle;rounded=0;orthogonalLoop=1;jettySize=auto;html=1;exitX=0;exitY=0.25;exitDx=0;exitDy=0;entryX=0.342;entryY=1.022;entryDx=0;entryDy=0;entryPerimeter=0;" edge="1" parent="2a3bc250acf0617d-7" source="mMlRRfYjoOWAPiQgJu5k-36" target="3cde6dad864a17aa-1">
          <mxGeometry relative="1" as="geometry" />
        </mxCell>
        <mxCell id="mMlRRfYjoOWAPiQgJu5k-56" style="edgeStyle=orthogonalEdgeStyle;rounded=0;orthogonalLoop=1;jettySize=auto;html=1;exitX=1;exitY=0.75;exitDx=0;exitDy=0;entryX=0.5;entryY=1;entryDx=0;entryDy=0;strokeColor=#FF0000;" edge="1" parent="2a3bc250acf0617d-7" source="mMlRRfYjoOWAPiQgJu5k-36">
          <mxGeometry relative="1" as="geometry">
            <mxPoint x="655" y="185" as="targetPoint" />
            <Array as="points">
              <mxPoint x="655" y="195" />
            </Array>
          </mxGeometry>
        </mxCell>
        <mxCell id="mMlRRfYjoOWAPiQgJu5k-36" value="EditAccount&lt;hr&gt;submit new info&lt;br&gt;delete account" style="rounded=1;whiteSpace=wrap;html=1;arcSize=24;fillColor=#ffffc0;strokeColor=#ff0000;shadow=0;comic=0;labelBackgroundColor=none;fontFamily=Verdana;fontSize=12;fontColor=#000000;align=center;" vertex="1" parent="2a3bc250acf0617d-7">
          <mxGeometry x="480" y="150" width="120" height="60" as="geometry" />
        </mxCell>
        <mxCell id="mMlRRfYjoOWAPiQgJu5k-41" style="edgeStyle=orthogonalEdgeStyle;rounded=0;orthogonalLoop=1;jettySize=auto;html=1;exitX=0.5;exitY=0;exitDx=0;exitDy=0;entryX=0.75;entryY=1;entryDx=0;entryDy=0;strokeColor=#FF0000;" edge="1" parent="2a3bc250acf0617d-7" source="mMlRRfYjoOWAPiQgJu5k-39" target="3cde6dad864a17aa-1">
          <mxGeometry relative="1" as="geometry">
            <Array as="points">
              <mxPoint x="425" y="120" />
              <mxPoint x="370" y="120" />
            </Array>
          </mxGeometry>
        </mxCell>
        <mxCell id="mMlRRfYjoOWAPiQgJu5k-48" style="edgeStyle=orthogonalEdgeStyle;rounded=0;orthogonalLoop=1;jettySize=auto;html=1;exitX=1;exitY=0.5;exitDx=0;exitDy=0;entryX=0.5;entryY=0;entryDx=0;entryDy=0;" edge="1" parent="2a3bc250acf0617d-7" source="mMlRRfYjoOWAPiQgJu5k-39" target="mMlRRfYjoOWAPiQgJu5k-36">
          <mxGeometry relative="1" as="geometry">
            <Array as="points">
              <mxPoint x="540" y="140" />
            </Array>
          </mxGeometry>
        </mxCell>
        <mxCell id="mMlRRfYjoOWAPiQgJu5k-39" value="" style="rhombus;whiteSpace=wrap;html=1;" vertex="1" parent="2a3bc250acf0617d-7">
          <mxGeometry x="410" y="130" width="30" height="20" as="geometry" />
        </mxCell>
        <mxCell id="mMlRRfYjoOWAPiQgJu5k-42" value="no account" style="text;strokeColor=none;align=center;fillColor=none;html=1;verticalAlign=middle;whiteSpace=wrap;rounded=0;" vertex="1" parent="2a3bc250acf0617d-7">
          <mxGeometry x="360" y="120" width="70" height="10" as="geometry" />
        </mxCell>
        <mxCell id="mMlRRfYjoOWAPiQgJu5k-46" value="account created" style="text;strokeColor=none;align=center;fillColor=none;html=1;verticalAlign=middle;whiteSpace=wrap;rounded=0;" vertex="1" parent="2a3bc250acf0617d-7">
          <mxGeometry x="395" y="70" width="95" height="10" as="geometry" />
        </mxCell>
        <mxCell id="mMlRRfYjoOWAPiQgJu5k-49" value="account updated" style="text;strokeColor=none;align=center;fillColor=none;html=1;verticalAlign=middle;whiteSpace=wrap;rounded=0;" vertex="1" parent="2a3bc250acf0617d-7">
          <mxGeometry x="340" y="170" width="120" height="10" as="geometry" />
        </mxCell>
        <mxCell id="mMlRRfYjoOWAPiQgJu5k-58" style="edgeStyle=orthogonalEdgeStyle;rounded=0;orthogonalLoop=1;jettySize=auto;html=1;exitX=0.5;exitY=0;exitDx=0;exitDy=0;entryX=1;entryY=0.25;entryDx=0;entryDy=0;" edge="1" parent="2a3bc250acf0617d-7" target="mMlRRfYjoOWAPiQgJu5k-36">
          <mxGeometry relative="1" as="geometry">
            <mxPoint x="655" y="165" as="sourcePoint" />
            <Array as="points">
              <mxPoint x="655" y="160" />
              <mxPoint x="620" y="160" />
              <mxPoint x="620" y="165" />
            </Array>
          </mxGeometry>
        </mxCell>
        <mxCell id="mMlRRfYjoOWAPiQgJu5k-57" value="" style="rhombus;whiteSpace=wrap;html=1;" vertex="1" parent="2a3bc250acf0617d-7">
          <mxGeometry x="640" y="165" width="30" height="20" as="geometry" />
        </mxCell>
        <mxCell id="mMlRRfYjoOWAPiQgJu5k-59" value="empty field&amp;nbsp;" style="text;strokeColor=none;align=center;fillColor=none;html=1;verticalAlign=middle;whiteSpace=wrap;rounded=0;" vertex="1" parent="2a3bc250acf0617d-7">
          <mxGeometry x="590" y="200" width="70" height="10" as="geometry" />
        </mxCell>
        <mxCell id="mMlRRfYjoOWAPiQgJu5k-62" style="edgeStyle=orthogonalEdgeStyle;rounded=0;orthogonalLoop=1;jettySize=auto;html=1;exitX=0;exitY=0.5;exitDx=0;exitDy=0;entryX=0;entryY=0.5;entryDx=0;entryDy=0;strokeColor=#FF0000;" edge="1" parent="2a3bc250acf0617d-7" source="mMlRRfYjoOWAPiQgJu5k-60" target="mMlRRfYjoOWAPiQgJu5k-30">
          <mxGeometry relative="1" as="geometry">
            <Array as="points">
              <mxPoint x="60" y="290" />
              <mxPoint x="60" y="220" />
            </Array>
          </mxGeometry>
        </mxCell>
        <mxCell id="mMlRRfYjoOWAPiQgJu5k-65" style="edgeStyle=orthogonalEdgeStyle;rounded=0;orthogonalLoop=1;jettySize=auto;html=1;exitX=0.5;exitY=1;exitDx=0;exitDy=0;entryX=0.5;entryY=0;entryDx=0;entryDy=0;" edge="1" parent="2a3bc250acf0617d-7" source="mMlRRfYjoOWAPiQgJu5k-60" target="mMlRRfYjoOWAPiQgJu5k-64">
          <mxGeometry relative="1" as="geometry" />
        </mxCell>
        <mxCell id="mMlRRfYjoOWAPiQgJu5k-60" value="" style="rhombus;whiteSpace=wrap;html=1;" vertex="1" parent="2a3bc250acf0617d-7">
          <mxGeometry x="125" y="280" width="30" height="20" as="geometry" />
        </mxCell>
        <mxCell id="mMlRRfYjoOWAPiQgJu5k-63" value="invalid email" style="text;strokeColor=none;align=center;fillColor=none;html=1;verticalAlign=middle;whiteSpace=wrap;rounded=0;" vertex="1" parent="2a3bc250acf0617d-7">
          <mxGeometry x="55" y="295" width="70" height="10" as="geometry" />
        </mxCell>
        <mxCell id="mMlRRfYjoOWAPiQgJu5k-66" style="edgeStyle=orthogonalEdgeStyle;rounded=0;orthogonalLoop=1;jettySize=auto;html=1;exitX=0.75;exitY=0;exitDx=0;exitDy=0;entryX=0.75;entryY=1;entryDx=0;entryDy=0;" edge="1" parent="2a3bc250acf0617d-7" source="mMlRRfYjoOWAPiQgJu5k-64" target="mMlRRfYjoOWAPiQgJu5k-30">
          <mxGeometry relative="1" as="geometry" />
        </mxCell>
        <mxCell id="mMlRRfYjoOWAPiQgJu5k-64" value="SendNotif&lt;hr&gt;enter email&lt;br&gt;enter message" style="rounded=1;whiteSpace=wrap;html=1;arcSize=24;fillColor=#ffffc0;strokeColor=#ff0000;shadow=0;comic=0;labelBackgroundColor=none;fontFamily=Verdana;fontSize=12;fontColor=#000000;align=center;" vertex="1" parent="2a3bc250acf0617d-7">
          <mxGeometry x="80" y="330" width="120" height="60" as="geometry" />
        </mxCell>
        <mxCell id="mMlRRfYjoOWAPiQgJu5k-67" value="email sent" style="text;strokeColor=none;align=center;fillColor=none;html=1;verticalAlign=middle;whiteSpace=wrap;rounded=0;" vertex="1" parent="2a3bc250acf0617d-7">
          <mxGeometry x="170" y="282.5" width="30" height="15" as="geometry" />
        </mxCell>
        <mxCell id="mMlRRfYjoOWAPiQgJu5k-69" value="search course" style="text;strokeColor=none;align=center;fillColor=none;html=1;verticalAlign=middle;whiteSpace=wrap;rounded=0;" vertex="1" parent="2a3bc250acf0617d-7">
          <mxGeometry x="315" y="280" width="50" height="15" as="geometry" />
        </mxCell>
        <mxCell id="mMlRRfYjoOWAPiQgJu5k-71" style="edgeStyle=orthogonalEdgeStyle;rounded=0;orthogonalLoop=1;jettySize=auto;html=1;exitX=0;exitY=0.5;exitDx=0;exitDy=0;entryX=0.5;entryY=0;entryDx=0;entryDy=0;" edge="1" parent="2a3bc250acf0617d-7" source="mMlRRfYjoOWAPiQgJu5k-70" target="mMlRRfYjoOWAPiQgJu5k-72">
          <mxGeometry relative="1" as="geometry">
            <mxPoint x="270" y="330" as="targetPoint" />
          </mxGeometry>
        </mxCell>
        <mxCell id="mMlRRfYjoOWAPiQgJu5k-76" style="edgeStyle=orthogonalEdgeStyle;rounded=0;orthogonalLoop=1;jettySize=auto;html=1;exitX=1;exitY=0.5;exitDx=0;exitDy=0;entryX=0.5;entryY=0;entryDx=0;entryDy=0;" edge="1" parent="2a3bc250acf0617d-7" source="mMlRRfYjoOWAPiQgJu5k-70" target="mMlRRfYjoOWAPiQgJu5k-75">
          <mxGeometry relative="1" as="geometry" />
        </mxCell>
        <mxCell id="mMlRRfYjoOWAPiQgJu5k-70" value="" style="rhombus;whiteSpace=wrap;html=1;" vertex="1" parent="2a3bc250acf0617d-7">
          <mxGeometry x="305" y="310" width="30" height="20" as="geometry" />
        </mxCell>
        <mxCell id="mMlRRfYjoOWAPiQgJu5k-73" style="edgeStyle=orthogonalEdgeStyle;rounded=0;orthogonalLoop=1;jettySize=auto;html=1;exitX=0.25;exitY=0;exitDx=0;exitDy=0;entryX=0;entryY=0.5;entryDx=0;entryDy=0;" edge="1" parent="2a3bc250acf0617d-7" source="mMlRRfYjoOWAPiQgJu5k-72" target="mMlRRfYjoOWAPiQgJu5k-31">
          <mxGeometry relative="1" as="geometry">
            <Array as="points">
              <mxPoint x="240" y="340" />
              <mxPoint x="240" y="240" />
            </Array>
          </mxGeometry>
        </mxCell>
        <mxCell id="mMlRRfYjoOWAPiQgJu5k-72" value="CreateCourse&lt;hr&gt;enter course info" style="rounded=1;whiteSpace=wrap;html=1;arcSize=24;fillColor=#ffffc0;strokeColor=#ff0000;shadow=0;comic=0;labelBackgroundColor=none;fontFamily=Verdana;fontSize=12;fontColor=#000000;align=center;" vertex="1" parent="2a3bc250acf0617d-7">
          <mxGeometry x="215" y="340" width="120" height="60" as="geometry" />
        </mxCell>
        <mxCell id="mMlRRfYjoOWAPiQgJu5k-80" style="edgeStyle=orthogonalEdgeStyle;rounded=0;orthogonalLoop=1;jettySize=auto;html=1;exitX=1;exitY=0.5;exitDx=0;exitDy=0;entryX=0;entryY=0.5;entryDx=0;entryDy=0;" edge="1" parent="2a3bc250acf0617d-7" source="mMlRRfYjoOWAPiQgJu5k-75" target="mMlRRfYjoOWAPiQgJu5k-79">
          <mxGeometry relative="1" as="geometry" />
        </mxCell>
        <mxCell id="mMlRRfYjoOWAPiQgJu5k-75" value="Course&lt;hr&gt;create lab&lt;br&gt;assign user to course" style="rounded=1;whiteSpace=wrap;html=1;arcSize=24;fillColor=#ffffc0;strokeColor=#ff0000;shadow=0;comic=0;labelBackgroundColor=none;fontFamily=Verdana;fontSize=12;fontColor=#000000;align=center;" vertex="1" parent="2a3bc250acf0617d-7">
          <mxGeometry x="360" y="340" width="120" height="70" as="geometry" />
        </mxCell>
        <mxCell id="mMlRRfYjoOWAPiQgJu5k-79" value="Lab&lt;hr&gt;assign TA to lab" style="rounded=1;whiteSpace=wrap;html=1;arcSize=24;fillColor=#ffffc0;strokeColor=#ff0000;shadow=0;comic=0;labelBackgroundColor=none;fontFamily=Verdana;fontSize=12;fontColor=#000000;align=center;" vertex="1" parent="2a3bc250acf0617d-7">
          <mxGeometry x="520" y="340" width="120" height="70" as="geometry" />
        </mxCell>
        <mxCell id="mMlRRfYjoOWAPiQgJu5k-81" value="create lab" style="text;strokeColor=none;align=center;fillColor=none;html=1;verticalAlign=middle;whiteSpace=wrap;rounded=0;" vertex="1" parent="2a3bc250acf0617d-7">
          <mxGeometry x="480" y="390" width="40" height="10" as="geometry" />
        </mxCell>
        <mxCell id="mMlRRfYjoOWAPiQgJu5k-131" style="edgeStyle=orthogonalEdgeStyle;rounded=0;orthogonalLoop=1;jettySize=auto;html=1;exitX=0;exitY=0.25;exitDx=0;exitDy=0;entryX=0;entryY=0.75;entryDx=0;entryDy=0;" edge="1" parent="2a3bc250acf0617d-7" source="mMlRRfYjoOWAPiQgJu5k-128" target="382b91b5511bd0f7-8">
          <mxGeometry relative="1" as="geometry">
            <Array as="points">
              <mxPoint x="40" y="465" />
              <mxPoint x="40" y="95" />
            </Array>
          </mxGeometry>
        </mxCell>
        <mxCell id="mMlRRfYjoOWAPiQgJu5k-128" value="Database" style="rounded=1;whiteSpace=wrap;html=1;arcSize=24;fillColor=#ffffc0;strokeColor=#ff0000;shadow=0;comic=0;labelBackgroundColor=none;fontFamily=Verdana;fontSize=12;fontColor=#000000;align=center;" vertex="1" parent="2a3bc250acf0617d-7">
          <mxGeometry x="80" y="450" width="120" height="60" as="geometry" />
        </mxCell>
        <mxCell id="2a3bc250acf0617d-9" style="edgeStyle=orthogonalEdgeStyle;html=1;labelBackgroundColor=none;endArrow=open;endSize=8;strokeColor=#000000;fontFamily=Verdana;fontSize=12;align=left;" parent="1" source="382b91b5511bd0f7-1" edge="1">
          <mxGeometry relative="1" as="geometry">
            <mxPoint x="200" y="65" as="targetPoint" />
          </mxGeometry>
        </mxCell>
        <mxCell id="mMlRRfYjoOWAPiQgJu5k-5" style="edgeStyle=orthogonalEdgeStyle;rounded=0;orthogonalLoop=1;jettySize=auto;html=1;exitX=0.5;exitY=1;exitDx=0;exitDy=0;entryX=0.5;entryY=0;entryDx=0;entryDy=0;" edge="1" parent="1" source="mMlRRfYjoOWAPiQgJu5k-1" target="mMlRRfYjoOWAPiQgJu5k-3">
          <mxGeometry relative="1" as="geometry" />
        </mxCell>
        <mxCell id="mMlRRfYjoOWAPiQgJu5k-1" value="LoginPage&lt;hr&gt;- submit login info" style="rounded=1;whiteSpace=wrap;html=1;arcSize=24;fillColor=#ffffc0;strokeColor=#ff0000;shadow=0;comic=0;labelBackgroundColor=none;fontFamily=Verdana;fontSize=12;fontColor=#000000;align=center;" vertex="1" parent="1">
          <mxGeometry x="200" y="35" width="120" height="60" as="geometry" />
        </mxCell>
        <mxCell id="mMlRRfYjoOWAPiQgJu5k-7" style="edgeStyle=orthogonalEdgeStyle;rounded=0;orthogonalLoop=1;jettySize=auto;html=1;exitX=0.5;exitY=1;exitDx=0;exitDy=0;entryX=0.183;entryY=0.007;entryDx=0;entryDy=0;entryPerimeter=0;" edge="1" parent="1" source="mMlRRfYjoOWAPiQgJu5k-3" target="2a3bc250acf0617d-7">
          <mxGeometry relative="1" as="geometry">
            <mxPoint x="260" y="180" as="targetPoint" />
          </mxGeometry>
        </mxCell>
        <mxCell id="mMlRRfYjoOWAPiQgJu5k-8" style="edgeStyle=orthogonalEdgeStyle;rounded=0;orthogonalLoop=1;jettySize=auto;html=1;exitX=0;exitY=0.5;exitDx=0;exitDy=0;entryX=0;entryY=0.75;entryDx=0;entryDy=0;strokeColor=#FF0000;" edge="1" parent="1" source="mMlRRfYjoOWAPiQgJu5k-3" target="mMlRRfYjoOWAPiQgJu5k-1">
          <mxGeometry relative="1" as="geometry" />
        </mxCell>
        <mxCell id="mMlRRfYjoOWAPiQgJu5k-10" style="edgeStyle=orthogonalEdgeStyle;rounded=0;orthogonalLoop=1;jettySize=auto;html=1;exitX=1;exitY=0.5;exitDx=0;exitDy=0;strokeColor=#FF0000;" edge="1" parent="1" source="mMlRRfYjoOWAPiQgJu5k-3">
          <mxGeometry relative="1" as="geometry">
            <mxPoint x="330" y="130" as="targetPoint" />
          </mxGeometry>
        </mxCell>
        <mxCell id="mMlRRfYjoOWAPiQgJu5k-3" value="" style="rhombus;whiteSpace=wrap;html=1;" vertex="1" parent="1">
          <mxGeometry x="245" y="120" width="30" height="20" as="geometry" />
        </mxCell>
        <mxCell id="mMlRRfYjoOWAPiQgJu5k-9" value="invalid login" style="text;strokeColor=none;align=center;fillColor=none;html=1;verticalAlign=middle;whiteSpace=wrap;rounded=0;" vertex="1" parent="1">
          <mxGeometry x="110" y="95" width="80" height="30" as="geometry" />
        </mxCell>
        <mxCell id="mMlRRfYjoOWAPiQgJu5k-19" style="edgeStyle=orthogonalEdgeStyle;rounded=0;orthogonalLoop=1;jettySize=auto;html=1;exitX=0;exitY=0.5;exitDx=0;exitDy=0;entryX=1;entryY=0.5;entryDx=0;entryDy=0;" edge="1" parent="1" source="mMlRRfYjoOWAPiQgJu5k-11" target="mMlRRfYjoOWAPiQgJu5k-1">
          <mxGeometry relative="1" as="geometry" />
        </mxCell>
        <mxCell id="mMlRRfYjoOWAPiQgJu5k-11" value="AccountReset&lt;hr&gt;&lt;div style=&quot;&quot;&gt;&lt;span style=&quot;background-color: initial;&quot;&gt;- submit new login info&lt;/span&gt;&lt;/div&gt;" style="rounded=1;whiteSpace=wrap;html=1;arcSize=24;fillColor=#ffffc0;strokeColor=#ff0000;shadow=0;comic=0;labelBackgroundColor=none;fontFamily=Verdana;fontSize=12;fontColor=#000000;align=center;" vertex="1" parent="1">
          <mxGeometry x="400" y="35" width="130" height="60" as="geometry" />
        </mxCell>
        <mxCell id="mMlRRfYjoOWAPiQgJu5k-16" style="edgeStyle=orthogonalEdgeStyle;rounded=0;orthogonalLoop=1;jettySize=auto;html=1;exitX=0.5;exitY=0;exitDx=0;exitDy=0;entryX=1;entryY=0.75;entryDx=0;entryDy=0;" edge="1" parent="1" source="mMlRRfYjoOWAPiQgJu5k-15" target="mMlRRfYjoOWAPiQgJu5k-1">
          <mxGeometry relative="1" as="geometry" />
        </mxCell>
        <mxCell id="mMlRRfYjoOWAPiQgJu5k-18" style="edgeStyle=orthogonalEdgeStyle;rounded=0;orthogonalLoop=1;jettySize=auto;html=1;exitX=1;exitY=0.5;exitDx=0;exitDy=0;entryX=0.5;entryY=1;entryDx=0;entryDy=0;strokeColor=#FF0000;" edge="1" parent="1" source="mMlRRfYjoOWAPiQgJu5k-15" target="mMlRRfYjoOWAPiQgJu5k-11">
          <mxGeometry relative="1" as="geometry">
            <mxPoint x="460" y="100" as="targetPoint" />
          </mxGeometry>
        </mxCell>
        <mxCell id="mMlRRfYjoOWAPiQgJu5k-15" value="" style="rhombus;whiteSpace=wrap;html=1;" vertex="1" parent="1">
          <mxGeometry x="330" y="120" width="30" height="20" as="geometry" />
        </mxCell>
        <mxCell id="mMlRRfYjoOWAPiQgJu5k-17" value="password reset" style="text;strokeColor=none;align=center;fillColor=none;html=1;verticalAlign=middle;whiteSpace=wrap;rounded=0;" vertex="1" parent="1">
          <mxGeometry x="270" y="130" width="60" height="30" as="geometry" />
        </mxCell>
        <mxCell id="mMlRRfYjoOWAPiQgJu5k-20" value="no account / enter email" style="text;strokeColor=none;align=center;fillColor=none;html=1;verticalAlign=middle;whiteSpace=wrap;rounded=0;" vertex="1" parent="1">
          <mxGeometry x="380" y="130" width="70" height="30" as="geometry" />
        </mxCell>
        <mxCell id="mMlRRfYjoOWAPiQgJu5k-21" value="login successful" style="text;strokeColor=none;align=center;fillColor=none;html=1;verticalAlign=middle;whiteSpace=wrap;rounded=0;" vertex="1" parent="1">
          <mxGeometry x="200" y="140" width="60" height="30" as="geometry" />
        </mxCell>
        <mxCell id="mMlRRfYjoOWAPiQgJu5k-29" style="edgeStyle=orthogonalEdgeStyle;rounded=0;orthogonalLoop=1;jettySize=auto;html=1;entryX=0.5;entryY=0;entryDx=0;entryDy=0;" edge="1" parent="1" target="382b91b5511bd0f7-8">
          <mxGeometry relative="1" as="geometry">
            <mxPoint x="260" y="190" as="sourcePoint" />
            <mxPoint x="255" y="220" as="targetPoint" />
            <Array as="points">
              <mxPoint x="260" y="200" />
              <mxPoint x="180" y="200" />
            </Array>
          </mxGeometry>
        </mxCell>
      </root>
    </mxGraphModel>
  </diagram>
</mxfile>
